<mxfile host="app.diagrams.net" modified="2024-05-30T15:09:38.013Z" agent="Mozilla/5.0 (Windows NT 10.0; Win64; x64) AppleWebKit/537.36 (KHTML, like Gecko) Chrome/124.0.0.0 Safari/537.36 OPR/110.0.0.0" etag="b2bUHsdBXLSU1q4Tc3Xh" version="24.4.10" type="github">
  <diagram name="Страница — 1" id="RlRDWQfRu3mIUBIPkAgo">
    <mxGraphModel dx="1432" dy="774" grid="1" gridSize="10" guides="1" tooltips="1" connect="1" arrows="1" fold="1" page="1" pageScale="1" pageWidth="827" pageHeight="1169" math="0" shadow="0">
      <root>
        <mxCell id="0" />
        <mxCell id="1" parent="0" />
        <mxCell id="1108Bwd-x0Z5iF_WYiy3-8" value="Пользователь" style="swimlane;fontStyle=0;childLayout=stackLayout;horizontal=1;startSize=30;horizontalStack=0;resizeParent=1;resizeParentMax=0;resizeLast=0;collapsible=1;marginBottom=0;whiteSpace=wrap;html=1;" vertex="1" parent="1">
          <mxGeometry x="10" y="380" width="140" height="180" as="geometry" />
        </mxCell>
        <mxCell id="1108Bwd-x0Z5iF_WYiy3-36" value="ID" style="text;strokeColor=none;fillColor=none;align=left;verticalAlign=middle;spacingLeft=4;spacingRight=4;overflow=hidden;points=[[0,0.5],[1,0.5]];portConstraint=eastwest;rotatable=0;whiteSpace=wrap;html=1;" vertex="1" parent="1108Bwd-x0Z5iF_WYiy3-8">
          <mxGeometry y="30" width="140" height="30" as="geometry" />
        </mxCell>
        <mxCell id="1108Bwd-x0Z5iF_WYiy3-9" value="Логин" style="text;strokeColor=none;fillColor=none;align=left;verticalAlign=middle;spacingLeft=4;spacingRight=4;overflow=hidden;points=[[0,0.5],[1,0.5]];portConstraint=eastwest;rotatable=0;whiteSpace=wrap;html=1;" vertex="1" parent="1108Bwd-x0Z5iF_WYiy3-8">
          <mxGeometry y="60" width="140" height="30" as="geometry" />
        </mxCell>
        <mxCell id="1108Bwd-x0Z5iF_WYiy3-10" value="Пароль" style="text;strokeColor=none;fillColor=none;align=left;verticalAlign=middle;spacingLeft=4;spacingRight=4;overflow=hidden;points=[[0,0.5],[1,0.5]];portConstraint=eastwest;rotatable=0;whiteSpace=wrap;html=1;" vertex="1" parent="1108Bwd-x0Z5iF_WYiy3-8">
          <mxGeometry y="90" width="140" height="30" as="geometry" />
        </mxCell>
        <mxCell id="1108Bwd-x0Z5iF_WYiy3-25" value="ФИО" style="text;strokeColor=none;fillColor=none;align=left;verticalAlign=middle;spacingLeft=4;spacingRight=4;overflow=hidden;points=[[0,0.5],[1,0.5]];portConstraint=eastwest;rotatable=0;whiteSpace=wrap;html=1;" vertex="1" parent="1108Bwd-x0Z5iF_WYiy3-8">
          <mxGeometry y="120" width="140" height="30" as="geometry" />
        </mxCell>
        <mxCell id="1108Bwd-x0Z5iF_WYiy3-11" value="Отдел" style="text;strokeColor=none;fillColor=none;align=left;verticalAlign=middle;spacingLeft=4;spacingRight=4;overflow=hidden;points=[[0,0.5],[1,0.5]];portConstraint=eastwest;rotatable=0;whiteSpace=wrap;html=1;" vertex="1" parent="1108Bwd-x0Z5iF_WYiy3-8">
          <mxGeometry y="150" width="140" height="30" as="geometry" />
        </mxCell>
        <mxCell id="1108Bwd-x0Z5iF_WYiy3-26" value="Отдел" style="swimlane;fontStyle=0;childLayout=stackLayout;horizontal=1;startSize=30;horizontalStack=0;resizeParent=1;resizeParentMax=0;resizeLast=0;collapsible=1;marginBottom=0;whiteSpace=wrap;html=1;" vertex="1" parent="1">
          <mxGeometry x="330" y="660" width="140" height="90" as="geometry" />
        </mxCell>
        <mxCell id="1108Bwd-x0Z5iF_WYiy3-37" value="ID" style="text;strokeColor=none;fillColor=none;align=left;verticalAlign=middle;spacingLeft=4;spacingRight=4;overflow=hidden;points=[[0,0.5],[1,0.5]];portConstraint=eastwest;rotatable=0;whiteSpace=wrap;html=1;" vertex="1" parent="1108Bwd-x0Z5iF_WYiy3-26">
          <mxGeometry y="30" width="140" height="30" as="geometry" />
        </mxCell>
        <mxCell id="1108Bwd-x0Z5iF_WYiy3-27" value="Название" style="text;strokeColor=none;fillColor=none;align=left;verticalAlign=middle;spacingLeft=4;spacingRight=4;overflow=hidden;points=[[0,0.5],[1,0.5]];portConstraint=eastwest;rotatable=0;whiteSpace=wrap;html=1;" vertex="1" parent="1108Bwd-x0Z5iF_WYiy3-26">
          <mxGeometry y="60" width="140" height="30" as="geometry" />
        </mxCell>
        <mxCell id="1108Bwd-x0Z5iF_WYiy3-72" style="edgeStyle=orthogonalEdgeStyle;rounded=0;orthogonalLoop=1;jettySize=auto;html=1;entryX=0.5;entryY=0;entryDx=0;entryDy=0;endArrow=ERoneToMany;endFill=0;" edge="1" parent="1" source="1108Bwd-x0Z5iF_WYiy3-31" target="1108Bwd-x0Z5iF_WYiy3-26">
          <mxGeometry relative="1" as="geometry" />
        </mxCell>
        <mxCell id="1108Bwd-x0Z5iF_WYiy3-73" style="edgeStyle=orthogonalEdgeStyle;rounded=0;orthogonalLoop=1;jettySize=auto;html=1;exitX=0;exitY=0;exitDx=0;exitDy=0;entryX=1;entryY=0;entryDx=0;entryDy=0;endArrow=ERoneToMany;endFill=0;" edge="1" parent="1" source="1108Bwd-x0Z5iF_WYiy3-31" target="1108Bwd-x0Z5iF_WYiy3-8">
          <mxGeometry relative="1" as="geometry" />
        </mxCell>
        <mxCell id="1108Bwd-x0Z5iF_WYiy3-74" style="edgeStyle=orthogonalEdgeStyle;rounded=0;orthogonalLoop=1;jettySize=auto;html=1;exitX=1;exitY=0;exitDx=0;exitDy=0;entryX=0;entryY=0;entryDx=0;entryDy=0;endArrow=ERoneToMany;endFill=0;" edge="1" parent="1" source="1108Bwd-x0Z5iF_WYiy3-31" target="1108Bwd-x0Z5iF_WYiy3-40">
          <mxGeometry relative="1" as="geometry">
            <Array as="points">
              <mxPoint x="570" y="380" />
              <mxPoint x="570" y="380" />
            </Array>
          </mxGeometry>
        </mxCell>
        <mxCell id="1108Bwd-x0Z5iF_WYiy3-31" value="Документ" style="swimlane;fontStyle=0;childLayout=stackLayout;horizontal=1;startSize=30;horizontalStack=0;resizeParent=1;resizeParentMax=0;resizeLast=0;collapsible=1;marginBottom=0;whiteSpace=wrap;html=1;" vertex="1" parent="1">
          <mxGeometry x="330" y="380" width="140" height="210" as="geometry" />
        </mxCell>
        <mxCell id="1108Bwd-x0Z5iF_WYiy3-32" value="Название" style="text;strokeColor=none;fillColor=none;align=left;verticalAlign=middle;spacingLeft=4;spacingRight=4;overflow=hidden;points=[[0,0.5],[1,0.5]];portConstraint=eastwest;rotatable=0;whiteSpace=wrap;html=1;" vertex="1" parent="1108Bwd-x0Z5iF_WYiy3-31">
          <mxGeometry y="30" width="140" height="30" as="geometry" />
        </mxCell>
        <mxCell id="1108Bwd-x0Z5iF_WYiy3-33" value="Дата создания" style="text;strokeColor=none;fillColor=none;align=left;verticalAlign=middle;spacingLeft=4;spacingRight=4;overflow=hidden;points=[[0,0.5],[1,0.5]];portConstraint=eastwest;rotatable=0;whiteSpace=wrap;html=1;" vertex="1" parent="1108Bwd-x0Z5iF_WYiy3-31">
          <mxGeometry y="60" width="140" height="30" as="geometry" />
        </mxCell>
        <mxCell id="1108Bwd-x0Z5iF_WYiy3-34" value="Тип документа" style="text;strokeColor=none;fillColor=none;align=left;verticalAlign=middle;spacingLeft=4;spacingRight=4;overflow=hidden;points=[[0,0.5],[1,0.5]];portConstraint=eastwest;rotatable=0;whiteSpace=wrap;html=1;" vertex="1" parent="1108Bwd-x0Z5iF_WYiy3-31">
          <mxGeometry y="90" width="140" height="30" as="geometry" />
        </mxCell>
        <mxCell id="1108Bwd-x0Z5iF_WYiy3-38" value="Автор (ID)" style="text;strokeColor=none;fillColor=none;align=left;verticalAlign=middle;spacingLeft=4;spacingRight=4;overflow=hidden;points=[[0,0.5],[1,0.5]];portConstraint=eastwest;rotatable=0;whiteSpace=wrap;html=1;" vertex="1" parent="1108Bwd-x0Z5iF_WYiy3-31">
          <mxGeometry y="120" width="140" height="30" as="geometry" />
        </mxCell>
        <mxCell id="1108Bwd-x0Z5iF_WYiy3-39" value="Отдел (ID)" style="text;strokeColor=none;fillColor=none;align=left;verticalAlign=middle;spacingLeft=4;spacingRight=4;overflow=hidden;points=[[0,0.5],[1,0.5]];portConstraint=eastwest;rotatable=0;whiteSpace=wrap;html=1;" vertex="1" parent="1108Bwd-x0Z5iF_WYiy3-31">
          <mxGeometry y="150" width="140" height="30" as="geometry" />
        </mxCell>
        <mxCell id="1108Bwd-x0Z5iF_WYiy3-35" value="Путь" style="text;strokeColor=none;fillColor=none;align=left;verticalAlign=middle;spacingLeft=4;spacingRight=4;overflow=hidden;points=[[0,0.5],[1,0.5]];portConstraint=eastwest;rotatable=0;whiteSpace=wrap;html=1;" vertex="1" parent="1108Bwd-x0Z5iF_WYiy3-31">
          <mxGeometry y="180" width="140" height="30" as="geometry" />
        </mxCell>
        <mxCell id="1108Bwd-x0Z5iF_WYiy3-40" value="Тип доукмента" style="swimlane;fontStyle=0;childLayout=stackLayout;horizontal=1;startSize=30;horizontalStack=0;resizeParent=1;resizeParentMax=0;resizeLast=0;collapsible=1;marginBottom=0;whiteSpace=wrap;html=1;" vertex="1" parent="1">
          <mxGeometry x="680" y="380" width="140" height="90" as="geometry" />
        </mxCell>
        <mxCell id="1108Bwd-x0Z5iF_WYiy3-41" value="ID" style="text;strokeColor=none;fillColor=none;align=left;verticalAlign=middle;spacingLeft=4;spacingRight=4;overflow=hidden;points=[[0,0.5],[1,0.5]];portConstraint=eastwest;rotatable=0;whiteSpace=wrap;html=1;" vertex="1" parent="1108Bwd-x0Z5iF_WYiy3-40">
          <mxGeometry y="30" width="140" height="30" as="geometry" />
        </mxCell>
        <mxCell id="1108Bwd-x0Z5iF_WYiy3-43" value="Название" style="text;strokeColor=none;fillColor=none;align=left;verticalAlign=middle;spacingLeft=4;spacingRight=4;overflow=hidden;points=[[0,0.5],[1,0.5]];portConstraint=eastwest;rotatable=0;whiteSpace=wrap;html=1;" vertex="1" parent="1108Bwd-x0Z5iF_WYiy3-40">
          <mxGeometry y="60" width="140" height="30" as="geometry" />
        </mxCell>
        <mxCell id="1108Bwd-x0Z5iF_WYiy3-75" style="edgeStyle=orthogonalEdgeStyle;rounded=0;orthogonalLoop=1;jettySize=auto;html=1;entryX=0.5;entryY=0;entryDx=0;entryDy=0;endArrow=ERoneToMany;endFill=0;" edge="1" parent="1" source="1108Bwd-x0Z5iF_WYiy3-47" target="1108Bwd-x0Z5iF_WYiy3-8">
          <mxGeometry relative="1" as="geometry" />
        </mxCell>
        <mxCell id="1108Bwd-x0Z5iF_WYiy3-77" style="edgeStyle=orthogonalEdgeStyle;rounded=0;orthogonalLoop=1;jettySize=auto;html=1;entryX=0.5;entryY=0;entryDx=0;entryDy=0;" edge="1" parent="1" source="1108Bwd-x0Z5iF_WYiy3-47" target="1108Bwd-x0Z5iF_WYiy3-31">
          <mxGeometry relative="1" as="geometry" />
        </mxCell>
        <mxCell id="1108Bwd-x0Z5iF_WYiy3-47" value="История действий" style="swimlane;fontStyle=0;childLayout=stackLayout;horizontal=1;startSize=30;horizontalStack=0;resizeParent=1;resizeParentMax=0;resizeLast=0;collapsible=1;marginBottom=0;whiteSpace=wrap;html=1;" vertex="1" parent="1">
          <mxGeometry x="330" y="110" width="140" height="180" as="geometry" />
        </mxCell>
        <mxCell id="1108Bwd-x0Z5iF_WYiy3-48" value="ID" style="text;strokeColor=none;fillColor=none;align=left;verticalAlign=middle;spacingLeft=4;spacingRight=4;overflow=hidden;points=[[0,0.5],[1,0.5]];portConstraint=eastwest;rotatable=0;whiteSpace=wrap;html=1;" vertex="1" parent="1108Bwd-x0Z5iF_WYiy3-47">
          <mxGeometry y="30" width="140" height="30" as="geometry" />
        </mxCell>
        <mxCell id="1108Bwd-x0Z5iF_WYiy3-50" value="Дата и время" style="text;strokeColor=none;fillColor=none;align=left;verticalAlign=middle;spacingLeft=4;spacingRight=4;overflow=hidden;points=[[0,0.5],[1,0.5]];portConstraint=eastwest;rotatable=0;whiteSpace=wrap;html=1;" vertex="1" parent="1108Bwd-x0Z5iF_WYiy3-47">
          <mxGeometry y="60" width="140" height="30" as="geometry" />
        </mxCell>
        <mxCell id="1108Bwd-x0Z5iF_WYiy3-52" value="Пользователь (ID)" style="text;strokeColor=none;fillColor=none;align=left;verticalAlign=middle;spacingLeft=4;spacingRight=4;overflow=hidden;points=[[0,0.5],[1,0.5]];portConstraint=eastwest;rotatable=0;whiteSpace=wrap;html=1;" vertex="1" parent="1108Bwd-x0Z5iF_WYiy3-47">
          <mxGeometry y="90" width="140" height="30" as="geometry" />
        </mxCell>
        <mxCell id="1108Bwd-x0Z5iF_WYiy3-51" value="Действие" style="text;strokeColor=none;fillColor=none;align=left;verticalAlign=middle;spacingLeft=4;spacingRight=4;overflow=hidden;points=[[0,0.5],[1,0.5]];portConstraint=eastwest;rotatable=0;whiteSpace=wrap;html=1;" vertex="1" parent="1108Bwd-x0Z5iF_WYiy3-47">
          <mxGeometry y="120" width="140" height="30" as="geometry" />
        </mxCell>
        <mxCell id="1108Bwd-x0Z5iF_WYiy3-49" value="Документ (ID)" style="text;strokeColor=none;fillColor=none;align=left;verticalAlign=middle;spacingLeft=4;spacingRight=4;overflow=hidden;points=[[0,0.5],[1,0.5]];portConstraint=eastwest;rotatable=0;whiteSpace=wrap;html=1;" vertex="1" parent="1108Bwd-x0Z5iF_WYiy3-47">
          <mxGeometry y="150" width="140" height="30" as="geometry" />
        </mxCell>
        <mxCell id="1108Bwd-x0Z5iF_WYiy3-78" value="&lt;font style=&quot;font-size: 14px;&quot;&gt;&lt;b&gt;Пользователь&amp;nbsp; -&amp;nbsp; Отдел:&amp;nbsp; один-ко-многим&amp;nbsp; (один&amp;nbsp; отдел&amp;nbsp; может&amp;nbsp; иметь&amp;nbsp; много&amp;nbsp; пользователей,&amp;nbsp; но&amp;nbsp; каждый&amp;nbsp; пользователь&amp;nbsp; принадлежит&amp;nbsp; только&amp;nbsp; одному&amp;nbsp; отделу)&lt;/b&gt;&lt;/font&gt;" style="text;strokeColor=none;fillColor=none;spacingLeft=4;spacingRight=4;overflow=hidden;rotatable=0;points=[[0,0.5],[1,0.5]];portConstraint=eastwest;fontSize=12;whiteSpace=wrap;html=1;" vertex="1" parent="1">
          <mxGeometry x="10" y="640" width="240" height="110" as="geometry" />
        </mxCell>
        <mxCell id="1108Bwd-x0Z5iF_WYiy3-80" value="" style="edgeStyle=entityRelationEdgeStyle;fontSize=12;html=1;endArrow=ERoneToMany;rounded=0;exitX=1;exitY=0.967;exitDx=0;exitDy=0;exitPerimeter=0;entryX=0;entryY=0.25;entryDx=0;entryDy=0;" edge="1" parent="1" source="1108Bwd-x0Z5iF_WYiy3-11" target="1108Bwd-x0Z5iF_WYiy3-26">
          <mxGeometry width="100" height="100" relative="1" as="geometry">
            <mxPoint x="80" y="620" as="sourcePoint" />
            <mxPoint x="320" y="688" as="targetPoint" />
            <Array as="points">
              <mxPoint x="90" y="560" />
            </Array>
          </mxGeometry>
        </mxCell>
        <mxCell id="1108Bwd-x0Z5iF_WYiy3-81" value="&lt;span style=&quot;font-size: 14px;&quot;&gt;&lt;b&gt;Документ&amp;nbsp; -&amp;nbsp; Отдел:&amp;nbsp; один-ко-многим&amp;nbsp; (один&amp;nbsp; отдел&amp;nbsp; может&amp;nbsp; иметь&amp;nbsp; много&amp;nbsp; документов,&amp;nbsp; но&amp;nbsp; каждый&amp;nbsp; документ&amp;nbsp; принадлежит&amp;nbsp; только&amp;nbsp; одному&amp;nbsp; отделу)&lt;/b&gt;&lt;/span&gt;" style="text;strokeColor=none;fillColor=none;spacingLeft=4;spacingRight=4;overflow=hidden;rotatable=0;points=[[0,0.5],[1,0.5]];portConstraint=eastwest;fontSize=12;whiteSpace=wrap;html=1;" vertex="1" parent="1">
          <mxGeometry x="490" y="640" width="240" height="110" as="geometry" />
        </mxCell>
        <mxCell id="1108Bwd-x0Z5iF_WYiy3-82" value="&lt;span style=&quot;font-size: 14px;&quot;&gt;&lt;b&gt;Документ&amp;nbsp; -&amp;nbsp; Пользователь:&amp;nbsp; один-ко-многим&amp;nbsp; (один&amp;nbsp; пользователь&amp;nbsp; может&amp;nbsp; создать&amp;nbsp; много&amp;nbsp; документов,&amp;nbsp; но&amp;nbsp; каждый&amp;nbsp; документ&amp;nbsp; создан&amp;nbsp; только&amp;nbsp; одним&amp;nbsp; пользователем)&lt;/b&gt;&lt;/span&gt;" style="text;strokeColor=none;fillColor=none;spacingLeft=4;spacingRight=4;overflow=hidden;rotatable=0;points=[[0,0.5],[1,0.5]];portConstraint=eastwest;fontSize=12;whiteSpace=wrap;html=1;" vertex="1" parent="1">
          <mxGeometry x="160" y="370" width="160" height="180" as="geometry" />
        </mxCell>
        <mxCell id="1108Bwd-x0Z5iF_WYiy3-83" value="&lt;span style=&quot;font-size: 14px;&quot;&gt;&lt;b&gt;Документ&amp;nbsp; -&amp;nbsp; Тип&amp;nbsp; документа:&amp;nbsp; один-ко-многим&amp;nbsp; (один&amp;nbsp; тип&amp;nbsp; документа&amp;nbsp; может&amp;nbsp; быть&amp;nbsp; у&amp;nbsp; многих&amp;nbsp; документов,&amp;nbsp; но&amp;nbsp; каждый&amp;nbsp; документ&amp;nbsp; имеет&amp;nbsp; только&amp;nbsp; один&amp;nbsp; тип)&lt;/b&gt;&lt;/span&gt;" style="text;strokeColor=none;fillColor=none;spacingLeft=4;spacingRight=4;overflow=hidden;rotatable=0;points=[[0,0.5],[1,0.5]];portConstraint=eastwest;fontSize=12;whiteSpace=wrap;html=1;" vertex="1" parent="1">
          <mxGeometry x="480" y="390" width="190" height="140" as="geometry" />
        </mxCell>
        <mxCell id="1108Bwd-x0Z5iF_WYiy3-84" value="&lt;span style=&quot;font-size: 14px;&quot;&gt;&lt;b&gt;История&amp;nbsp; действий&amp;nbsp; -&amp;nbsp; Пользователь:&amp;nbsp; один-ко-многим&amp;nbsp; (один&amp;nbsp; пользователь&amp;nbsp; может&amp;nbsp; совершить&amp;nbsp; много&amp;nbsp; действий,&amp;nbsp; но&amp;nbsp; каждое&amp;nbsp; действие&amp;nbsp; совершено&amp;nbsp; только&amp;nbsp; одним&amp;nbsp; пользователем)&lt;/b&gt;&lt;/span&gt;" style="text;strokeColor=none;fillColor=none;spacingLeft=4;spacingRight=4;overflow=hidden;rotatable=0;points=[[0,0.5],[1,0.5]];portConstraint=eastwest;fontSize=12;whiteSpace=wrap;html=1;" vertex="1" parent="1">
          <mxGeometry x="50" y="90" width="280" height="100" as="geometry" />
        </mxCell>
        <mxCell id="1108Bwd-x0Z5iF_WYiy3-85" value="&lt;span style=&quot;font-size: 14px;&quot;&gt;&lt;b&gt;История&amp;nbsp; действий&amp;nbsp; -&amp;nbsp; Документ:&amp;nbsp; один-ко-многим&amp;nbsp; (с&amp;nbsp; одним&amp;nbsp; документом&amp;nbsp; может&amp;nbsp; быть&amp;nbsp; связано&amp;nbsp; много&amp;nbsp; действий,&amp;nbsp; но&amp;nbsp; каждое&amp;nbsp; действие&amp;nbsp; связано&amp;nbsp; только&amp;nbsp; с&amp;nbsp; одним&amp;nbsp; документом)&lt;/b&gt;&lt;/span&gt;" style="text;strokeColor=none;fillColor=none;spacingLeft=4;spacingRight=4;overflow=hidden;rotatable=0;points=[[0,0.5],[1,0.5]];portConstraint=eastwest;fontSize=12;whiteSpace=wrap;html=1;" vertex="1" parent="1">
          <mxGeometry x="470" y="260" width="280" height="120" as="geometry" />
        </mxCell>
      </root>
    </mxGraphModel>
  </diagram>
</mxfile>
